<?xml version="1.0" encoding="utf-8"?>
<!-- Generator: Adobe Illustrator 21.0.2, SVG Export Plug-In . SVG Version: 6.00 Build 0)  -->
<svg version="1.1" id="Layer_1" xmlns="http://www.w3.org/2000/svg" xmlns:xlink="http://www.w3.org/1999/xlink" x="0px" y="0px"
	 viewBox="0 0 408.8 75.3" style="enable-background:new 0 0 408.8 75.3;" xml:space="preserve">
<style type="text/css">
	.st0{fill:#79BC43;}
	.st1{fill:#091F40;}
</style>
<path class="st0" d="M210.4,64.3c-7.2-7.2-10.8-16.1-10.8-26.7c0-10.7,3.6-19.6,10.8-26.8s16.1-10.8,26.8-10.8
	c10.7,0,19.6,3.6,26.8,10.8c7.2,7.2,10.8,16.1,10.8,26.8s-3.6,19.6-10.8,26.8c-7.2,7.2-16.1,10.8-26.8,10.8
	C226.5,75.1,217.6,71.5,210.4,64.3z M237.2,61.1c6.6,0,12-2.3,16.2-6.8s6.3-10.1,6.3-16.8s-2.1-12.3-6.3-16.8s-9.6-6.8-16.3-6.8
	c-6.6,0-12,2.3-16.2,6.8c-4.2,4.5-6.3,10.1-6.3,16.8s2.1,12.3,6.3,16.8C225.1,58.9,230.5,61.1,237.2,61.1z"/>
<path class="st1" d="M85.3,0.3v43.5c0,5.7,1.7,9.8,5,12.5c3.3,2.7,7.5,4,12.5,4s9.2-1.3,12.5-4c3.3-2.7,5-6.8,5-12.5V0.3h15v47.5
	c0,7.7-3.1,14.2-9.3,19.5c-6.2,5.3-13.9,8-23.3,8s-17.1-2.7-23.3-8c-6.2-5.3-9.3-11.8-9.3-19.5V0.3H85.3z"/>
<path class="st1" d="M333.9,75.3l30-75h15l30,75l-16,0.1l-4.5-11.5h-34l-4.5,11.5H333.9z M371.8,20.1l-11.4,28.5h22.5L371.8,20.1z"
	/>
<path class="st1" d="M1,75.3h76.9c-1-0.7-2-1.5-3-2.3c-4-3.5-6.9-7.4-8.8-11.7H26L61.1,5.8v0l2-3.2l0-2.3l-2.2,0v0H1l0,14h35l-35,56
	L1,75.3z"/>
<path class="st1" d="M334.7,21.9c0-14.4-8.8-21.6-26.3-21.6h-32.7v8.8h0v1.3v3.5v1.6c3.7,6.5,5.6,14,5.6,22.3s-1.9,15.8-5.6,22.3
	v4.2v2h0v9h15v-31h13.7l18,31h3.7l5.6-13.9l-10.7-18.8C330.1,39.7,334.7,32.8,334.7,21.9z M311.8,30.3h-21v-16h21.2
	c5.9,0.2,9,2.8,9.2,7.7C320.9,27.5,317.8,30.2,311.8,30.3z"/>
<path class="st1" d="M196.3,55.1c-4.7,3.4-10.1,5-16.3,5c-6.7,0-12.2-2.1-16.3-6.2c-4.1-4.1-6.2-9.7-6.3-16.6c0-6.5,2.1-11.9,6.2-16
	c4.1-4.2,9.6-6.3,16.3-6.3c6.1,0,11.5,1.7,16.4,5.1c1.9-4.6,4.6-8.8,8.1-12.6c-7-5-15.1-7.5-24.4-7.5c-10.6,0-19.5,3.6-26.7,10.8
	c-7.2,7.2-10.8,16.1-10.8,26.6c0,10.8,3.6,19.8,10.8,26.9c7.2,7.2,16.1,10.8,26.7,10.8c9.3,0,17.5-2.5,24.4-7.5
	C200.9,63.9,198.2,59.7,196.3,55.1z"/>
</svg>
