<?xml version="1.0" encoding="utf-8"?>
<!-- Generator: Adobe Illustrator 21.0.2, SVG Export Plug-In . SVG Version: 6.00 Build 0)  -->
<svg version="1.1" id="Layer_1" xmlns="http://www.w3.org/2000/svg" xmlns:xlink="http://www.w3.org/1999/xlink" x="0px" y="0px"
	 viewBox="0 0 407.8 74.7" style="enable-background:new 0 0 407.8 74.7;" xml:space="preserve">
<style type="text/css">
	.st0{fill:#77BD43;}
	.st1{fill:#FFFFFF;}
</style>
<path class="st0" d="M209.4,64c-7.2-7.2-10.8-16.1-10.8-26.7c0-10.7,3.6-19.6,10.8-26.8s16.1-10.8,26.8-10.8s19.6,3.6,26.8,10.8
	c7.2,7.2,10.8,16.1,10.8,26.8s-3.6,19.6-10.8,26.8c-7.2,7.2-16.1,10.8-26.8,10.8S216.6,71.2,209.4,64z M236.2,60.8
	c6.6,0,12-2.3,16.2-6.8s6.3-10.1,6.3-16.8s-2.1-12.3-6.3-16.8s-9.6-6.8-16.3-6.8c-6.6,0-12,2.3-16.2,6.8c-4.2,4.5-6.3,10.1-6.3,16.8
	s2.1,12.3,6.3,16.8C224.1,58.5,229.5,60.8,236.2,60.8z"/>
<path class="st1" d="M84.3,0v43.5c0,5.7,1.7,9.8,5,12.5c3.3,2.7,7.5,4,12.5,4s9.2-1.3,12.5-4c3.3-2.7,5-6.8,5-12.5V0h15v47.5
	c0,7.7-3.1,14.2-9.3,19.5s-13.9,8-23.3,8s-17.1-2.7-23.3-8c-6.2-5.3-9.3-11.8-9.3-19.5V0H84.3z"/>
<path class="st1" d="M377.9,0h-15l-30,75h16l4.5-11.5h34l4.5,11.5l16,0L377.9,0z M359.4,48.3l11.4-28.5l11.1,28.5H359.4z"/>
<path class="st1" d="M0,75h76.9c-1-0.7-2-1.5-3-2.3c-4-3.5-6.9-7.4-8.8-11.7H25L60.1,5.5v0l2-3.2l0-2.3l-2.2,0v0H0l0,14h35L0,70
	L0,75z"/>
<path class="st1" d="M333.7,21.6C333.7,7.2,325,0,307.5,0h-32.7v8.8h0v1.3v3.5v1.6c3.7,6.5,5.6,14,5.6,22.3s-1.9,15.8-5.6,22.3V64v2
	h0v9h15V44h13.7l18,31h3.7l5.6-13.9l-10.7-18.8C329.1,39.3,333.7,32.4,333.7,21.6z M310.8,30h-21v-16h21.2c5.9,0.2,9,2.8,9.2,7.7
	C319.9,27.2,316.8,29.9,310.8,30z"/>
<path class="st1" d="M195.3,54.8c-4.7,3.4-10.1,5-16.3,5c-6.7,0-12.2-2.1-16.3-6.2c-4.1-4.1-6.2-9.7-6.3-16.6c0-6.5,2.1-11.9,6.2-16
	c4.1-4.2,9.6-6.3,16.3-6.3c6.1,0,11.5,1.7,16.4,5.1c1.9-4.6,4.6-8.8,8.1-12.6c-7-5-15.1-7.5-24.4-7.5c-10.6,0-19.5,3.6-26.7,10.8
	c-7.2,7.2-10.8,16.1-10.8,26.6c0,10.8,3.6,19.8,10.8,26.9c7.2,7.2,16.1,10.8,26.7,10.8c9.3,0,17.5-2.5,24.4-7.5
	C199.9,63.5,197.2,59.4,195.3,54.8z"/>
</svg>
